<svg width="0" height="0" class="hidden">
  <symbol xmlns="http://www.w3.org/2000/svg" viewBox="0 0 378.84 121.96" id="logo">
    <path d="M99.76 95.5a32.51 32.51 0 00-6.26-5.85c-3-2.21-5.5-2.28-9.31-2.28H33.24c-.73 0-1 .1-1.36 1.33 6.69 4.51 9.15 9.58 11.83 17.15a58.42 58.42 0 012.72 13.08c.1.9.27 1.79.39 2.59 4.47.53 56.53.55 61.54 0-.25-9.71-2.64-18.49-8.6-26.02zm-45.61 11.3a21.08 21.08 0 01-2.95-2c.75-.64 1.14-1.21 1.65-1.36q6.18-1.8 12.41-3.4a1.23 1.23 0 011 .64 1.25 1.25 0 01-.52 1.13c-1.78.66-3.61 1.21-5.43 1.76-1.17.36-2.36.67-3.54 1v.94c3.22 1.35 6.45 2.68 9.66 4 .84.36 1.86.57 1.9 1.8m11.3-1.82a9.85 9.85 0 01-2.31-.22c1.16-1.77 1.16-1.76 6.17-3.12 2.1-.57 4.2-1.18 6.48-1.82-1.09-1.76-2.78-2-4.17-2.64-1.72-.82-3.53-1.47-5.21-2.36-.86-.45-.78-1.27.12-2.07a62.84 62.84 0 0113.34 6c.47.27.73.9 1.11 1.38-2.47 1.56-10.82 4.19-15.48 4.91zm291.74-18.12c-2-2.89-4-5.77-6-8.66-.51-.74-1-1.52-1.54-2.42 3.81-1.85 6.92-4 7.52-8.74a53.52 53.52 0 00-6.68-9.44 8.77 8.77 0 00-7.43-3.42c-7.67.08-15.34 0-23 0a18.74 18.74 0 00-2.09.26v2.93l1.84.49c2.85.74 3.37 1.3 3.74 4.12a7.77 7.77 0 01.08 1c0 8.3.08 16.61 0 24.92-.05 3.76-.54 4.13-4.22 5.25-.45.14-.88.34-1.28.5a3.44 3.44 0 00-.35.94 7.88 7.88 0 00.15 1.38c3.72.84 18.63.84 22.36 0v-2.36c-1-.31-1.94-.61-2.85-.84a3 3 0 01-2.43-2.67 39.21 39.21 0 01.08-11.7c3.59-.93 5.77.51 7.36 3.34q2.81 5 5.75 10c1 1.63 2.08 3.17 3.21 4.89 4.4-.21 8.66.44 13.05-.41v-2.67c-3.62-1.01-5.36-3.9-7.27-6.69zm-13-15.39a5.87 5.87 0 01-3.07 2 40.64 40.64 0 01-5.66.76c-1.36-2.83-.65-5.55-.73-8.16a29.74 29.74 0 01.31-7.77 23.59 23.59 0 013.8-.04c2.54.36 5.15.86 6.18 3.69 1.17 3.28 1.23 6.6-.87 9.55zM200.86 90.9c-.38-1-.86-2.06-1.27-3.1-3.72-9.17-7.4-18.35-11.15-27.5-1-2.42-1.16-2.43-4.56-1.87-.33.65-.75 1.33-1 2.06-2 4.89-3.89 9.79-5.83 14.69s-4 10.1-6 15.12c-1.21 3-2.55 5.83-5.8 7.28-1.45.64-1.18 2-.65 3.38 4.54.07 8.92.55 13.24-.29.26-1.47.35-2.53-1.07-3-.87-.32-1.7-.75-2.43-1.07-.3-3.3-.3-3.3 1.48-6.63a71.51 71.51 0 0112.52-.06c.7 1.79 1.43 3.54 2.05 5.32.14.38-.11.9-.2 1.5-.55.26-1.11.53-1.68.78s-1.16.46-1.84.73v2.35c3.89.77 16.75.77 20.63 0v-2.52c-3.61-1.08-5.28-3.92-6.44-7.17zm-23.32-5.2c-.44-1.18.35-2.11.71-3.09.92-2.46 2-4.88 3-7.31h1.11c1.38 3.3 2.76 6.61 4.14 9.89-2.48 1.45-4.89 1.55-8.96.51zm48.02-68.4a10.34 10.34 0 00-2.88-5.37 34.86 34.86 0 01-4.8-5.91 9.11 9.11 0 00-4.21-3.65A24.92 24.92 0 00203.02.11a28.16 28.16 0 00-12.16 2.35c-7.71 3.42-12.72 12.3-12.16 20.58.62 9.08 4.64 15.82 13.35 19.19a30.23 30.23 0 0016.47 1.29c9.91-1.73 19.98-11.57 17.04-26.22zm-13 12a20.69 20.69 0 01-.86 3.72c-1.81 5.72-6.52 7.69-12.13 6.54a7 7 0 01-4.86-3.61 19.18 19.18 0 01-2.08-5.31 44 44 0 01-.11-17.15 17.17 17.17 0 011-3.2c1.64-4 4.78-6.15 8.89-6.07a9.12 9.12 0 018.83 6.15c1.55 3.78 1.61 7.79 1.83 12.42-.14 1.79-.26 4.18-.54 6.58zM258.53.98c-8.76-1.25-17.51-.71-26.26-.06a4.74 4.74 0 00-1.37.69c.08.77.15 1.52.22 2.22a10.33 10.33 0 001.54.52c2.7.45 3.71 2.2 3.74 4.74v22.49c0 1.28 0 2.56-.06 3.83-.15 2.35-1.21 3.89-3.74 4.18a6.72 6.72 0 00-1.72.69c.07 1 .13 1.74.19 2.64a18.8 18.8 0 002.43.31c6.7 0 13.4 0 20.1-.1a46.61 46.61 0 006.66-.63c7.17-1.15 12.47-5.05 15.13-11.77 4.72-11.86-.43-27.36-16.86-29.75zm4.62 30.39c-1.61 5.45-5.78 8.37-11 8-3.17-.21-4.22-1.22-4.51-4.41-.07-.79-.07-1.59-.07-2.39V8.17a35.41 35.41 0 01.36-3.63c8.53-.76 13.62 2.63 15.56 10.25a31 31 0 01-.34 16.58zm-101.08 29.2a15.13 15.13 0 00-6.88-1.86c-8.46 0-16.93.09-25.39.17-.25 0-.49.32-.84.57v2.58c1.09.2 1.72.27 2.32.43 2.44.65 3.15 1.47 3.43 3.91a13.86 13.86 0 01.05 1.44c0 8.15.06 16.31 0 24.46 0 3.77-.48 4.22-4.07 5.39-.45.14-.88.33-1.46.55v2.29c3.58.79 18.25.84 22.36.09a2.85 2.85 0 00.32-.85 11.44 11.44 0 00-.2-1.54c-.58-.19-1.16-.4-1.74-.58-3.42-1-3.8-1.42-4-5-.11-2.39-.07-4.79 0-7.19a21.53 21.53 0 01.43-2.67c3.77-.34 7.27-.52 10.72-1a16.05 16.05 0 005.41-1.75 10.35 10.35 0 005.65-9.86 10.52 10.52 0 00-6.11-9.58zm-15.35 18.16c-1-3.13-1.1-10.33-.26-15.79 6.49-1.24 9.78 2.5 9.64 8.18-.15 5.93-2.59 7.98-9.38 7.61zm-95.7-36.36c3.72-2.2 7.73-4.73 11.85-6.72 1.4.67 1.19 1.76 1.1 2.6-.66 6.1 1.1 11.63 3.65 17.05 1.69 3.6 3.1 7.34 4.67 11 .49 1.16 1.06 2.29 1.73 3.71l11.79.14c1 3.32 1.14 7.45.49 13.48-1.49 1.26-3.32.71-5 .72q-24.13.02-48.28.02h-3.35a16.22 16.22 0 01-2-.36 72.79 72.79 0 01-.16-13.45c2.36-.75 4.6-.35 6.78-.42s4.11 0 6.18 0c.62-1.23 1.18-2.2 1.61-3.21 2.42-5.73 4.91-11.43 7.18-17.22a58 58 0 001.76-7.34zM10.02.55a30.65 30.65 0 018.2-.08 23.51 23.51 0 01.48 3.18v13.89c0 1.24.16 2.48.26 3.81 3.34.87 6.54.38 9.69.46s6.39 0 9.58 0 6.36.06 9.6.09c1.08 2.52.61 4.86.44 7.45a25.62 25.62 0 01-3.25.42H23.94c-1.57 0-3.13.12-4.79.19-.74 1.89-.45 3.66-.45 5.37v43.12c0 1.73-.06 3.46-.1 5.35a21.23 21.23 0 01-8.87.2c-.12-1.4-.31-2.63-.33-3.87-.48-33.49-.18-75.76.62-79.58zm95.05 83.53a27.78 27.78 0 01-8.53.06c-1.21-1.7-.74-3.51-.75-5.22V30.3a28 28 0 00-3.45-.45H66.92c-1.41-2.42-.75-4.77-.72-6.84 1.13-1.48 2.5-1.13 3.72-1.14h20.62c1.57 0 3.2.33 4.85-.61.84-3.36.24-6.87.39-10.34s-.19-6.67.25-10.22c2.85-.66 5.52-.34 8.44-.23a14 14 0 01.55 2.6c.07 3.35 0 6.71 0 10.07v70.94zm201.54-21.53a120.74 120.74 0 000 14 9.63 9.63 0 005.63.26 4.06 4.06 0 002.13-1.68 13.32 13.32 0 001.12-2.87l2.83-.16a17 17 0 01.4 2.46c0 3.19.06 6.39 0 9.58 0 1.9-.19 1.94-2.79 1.93-.87-1.49-1.44-3.27-2.65-4.33-1.66-1.46-4-.75-6.23-.81a16 16 0 00-.56 2.77c0 3.19-.06 6.39.07 9.58.1 2.46 1 3.57 3.44 3.78a38 38 0 007.15 0c2.58-.27 4.28-2.07 5.51-4.2.94-1.65 1.67-3.41 2.56-5.26h3a64.37 64.37 0 01-.08 13 8.48 8.48 0 01-1.93.5h-34.49a15 15 0 01-2.05-.34c-.06-.83-.1-1.57-.14-2.16.46-.34.68-.65.94-.69 4.17-.68 4.79-1.76 4.79-6.26V68.18a17.33 17.33 0 00-.08-1.91c-.27-2.55-.77-3.11-3.43-3.85-.6-.16-1.21-.29-1.82-.44a6.15 6.15 0 01-.4-1.45 6 6 0 01.27-1.32c4.47-.65 31.66-.57 35.68.15a55.92 55.92 0 01.44 9.7c-2.62.75-3.21.78-3.7-.66-1.68-5-5.26-6.4-10.12-5.84-1.63.14-3.24-.01-5.49-.01zm4.13-34.7l-2.64.27c-2.13-5.14-2.41-5.31-7.93-5a4.62 4.62 0 00-1.11.4 66.43 66.43 0 00-.14 12.7 2.82 2.82 0 002 2.46 11.3 11.3 0 0014.71-5.14c.66-1.28 1.17-2.62 1.84-4.12l2.62-.15a32.87 32.87 0 010 13.33 2.06 2.06 0 01-.33.33.91.91 0 01-.45.14q-17.25.07-34.51.13c-.79 0-1.57-.09-2.13-.12-1.1-.91-1-1.82-.62-3l2.07-.54c2.56-.71 3.2-1.35 3.34-3.94s.06-5.11.07-7.66V8.28a3.61 3.61 0 00-3-3.82l-2.49-.6c-.07-.77-.14-1.53-.19-2.21.41-.26.66-.55.94-.57 1.27-.11 2.55-.18 3.82-.18h30.77a27.56 27.56 0 01.64 10.47c-1.74.6-3 .51-3.72-1.24-.24-.59-.55-1.15-.82-1.73a6 6 0 00-6.1-3.74c-2.68.08-5.36.08-8.26.12a65.57 65.57 0 00-.1 14.22c1.3.08 2.38.18 3.46.19 2.53 0 4.3-1 4.79-3.67a7 7 0 01.52-1.25c2.6-.34 3.15-.14 3.16 1.44.07 3.97.36 7.96-.21 12.14zM165.63 4.62c1.06-2 1.72-4.13 4.67-2.86.49 4.7.46 9.6.74 14.77l-2.69.51c-.44-.4-.76-.57-.88-.83-.72-1.6-1.29-3.27-2.09-4.83a12.73 12.73 0 00-8.68-7 9.76 9.76 0 00-11.48 5.59 8.38 8.38 0 00-.57 1.31 39.78 39.78 0 00-.17 21.32c1.68 6.14 8.72 8.9 14.84 6.25a13.68 13.68 0 006.94-7c.68-1.43 1.2-2.94 1.89-4.66l2.53-.17c1.08 1.21 1.19 10.17.34 15.21-3 1.68-3.31-1.33-4.74-2.88-1 .57-1.87 1.12-2.78 1.64-7.25 4.14-14.64 4.11-22 .43-3.5-1.75-6.29-4.36-7.44-8.34a9 9 0 00-1.12-2.64c-2.54-3.71-2.52-7.84-2-12a21.33 21.33 0 0132.11-15.45c.74.45 1.4.89 2.58 1.63zm65.82 56.36c1.19-1.24 2.14-3 4.64-1.75.67 1.7.25 3.76.32 5.76s0 3.8 0 5.91l-3.21.32c-.64-1.33-1.18-2.63-1.86-3.85-1.37-2.43-3.14-4.47-6-5.2a7.46 7.46 0 00-3.28-.21 4.75 4.75 0 00-2.55 8.14 12.23 12.23 0 003.1 2.19c2 1 4 1.92 6 3a52.21 52.21 0 015.42 3 12.5 12.5 0 015.39 13.78 13.46 13.46 0 01-11.23 9.78 16.17 16.17 0 01-11-2.33c-.8-.5-1.55-1.07-2.44-1.68a12.75 12.75 0 01-2.27 2.35c-.57.35-1.52.07-2.28.07-.86-3.19-1-8.12-.34-13.76.93-.89 2-.73 3.25-.16.67 1.59 1.35 3.36 2.16 5.08a11.22 11.22 0 007 6.17 6.76 6.76 0 005.13-.23c3.24-1.53 4.21-5.29 1.86-8a14.69 14.69 0 00-3.82-2.81c-2.35-1.36-4.81-2.51-7.2-3.8a30.48 30.48 0 01-3.67-2.24 11.89 11.89 0 01-4.84-12.23c.82-4.86 4-7.88 8.47-9.55a12.72 12.72 0 0110.23.62c1 .49 1.95 1.02 3.02 1.63zm54.57-2.06a83.27 83.27 0 01.12 11.58l-2.63.38c-.44-.42-.76-.59-.87-.86-.39-.87-.72-1.77-1-2.67a6.63 6.63 0 00-6.62-4.71c-1.39-.06-2.8.09-4.41.16-.12 1.5-.3 2.75-.3 4v25.38c.2 3.9.69 4.49 4.52 5.52.45.12.9.29 1.53.5.06.72.12 1.48.18 2.21-3.4.87-17.81 1-23.11.22-.07-.52-.34-1.19-.15-1.68a2.42 2.42 0 011.32-1.17c4.28-1.52 4.63-1.79 4.66-5.89.07-8.94 0-17.88 0-26.82a18.67 18.67 0 00-.29-2.12c-1.15-.12-2.21-.29-3.27-.33-4.8-.18-7 1.6-8 5.81a21 21 0 01-.86 2.31h-2.28c-.26-.32-.62-.56-.63-.81-.1-2.86-.2-5.72-.21-8.58a12.74 12.74 0 01.48-2.42zm-176.38 49.61a13.53 13.53 0 012.25-.6c1.44-.07 2.88 0 4.32 0h256.13c1.6 0 3.2 0 4.79.14.46 0 .87.59 1.72 1.21a11.46 11.46 0 01-2.31.59q-132.86-.06-265.7-.19c-.21-.04-.42-.41-1.2-1.15z"></path>
    <path d="M.47 86.48c2.49 0 4.69-.09 6.9-.1 3.66 0 7.32.06 11 0a18.24 18.24 0 0111.08 3.81 28.14 28.14 0 018.57 10.18 4.78 4.78 0 01.22 1.4 5.14 5.14 0 01-1.39.42H2a4.67 4.67 0 01-1.27-.36c-.85-3.66-.96-9.67-.26-15.35zm113.93.3a14.8 14.8 0 00-2.17-.36H96.48a6.78 6.78 0 00-1.9.76c6 3.84 9.7 8.93 12.54 14.65a13.62 13.62 0 007.45-.27c-.05-4.85.17-9.58-.17-14.78zM63.66 8.87c-.92.58-2 1.29-3.06 1.93-3 1.76-6 3.49-8.85 5.1-1.41-.39-1.26-1.27-1.27-2 0-2.08-.11-4.16 0-6.22a6.69 6.69 0 017.11-6.31 7 7 0 015.05 2.41 5 5 0 011.02 5.09zM41.13 109.54c-1.09.11-2.17.32-3.25.33H3.41a13.46 13.46 0 01-2.37-.2.87.87 0 01-.51-.65.91.91 0 01.37-.76 6 6 0 011.83-.36h35.9c1.02.01 2.39-.29 2.5 1.64zm22.66-97.85v5.18c-4.18 2.49-8.35 5-13.09 7.44v-5.28a111.85 111.85 0 0113.09-7.34zm.07 15.68v4.8c-5.3 3.77-9.94 6.3-13.18 7.17v-4.56a133.82 133.82 0 0113.18-7.41zm.01-8v5.21c-2.21 1.3-4.36 2.63-6.58 3.85-2.06 1.14-4 2.63-6.38 3.27a8.29 8.29 0 01-.4-1.5v-3.14c4.12-2.59 8.36-5 13.36-7.69z"></path>
  </symbol>
</svg>