<?xml version="1.0" standalone="no"?>
<!DOCTYPE svg PUBLIC "-//W3C//DTD SVG 20010904//EN"
 "http://www.w3.org/TR/2001/REC-SVG-20010904/DTD/svg10.dtd">
<svg version="1.0" xmlns="http://www.w3.org/2000/svg"
 width="474.000000pt" height="474.000000pt" viewBox="0 0 474.000000 474.000000"
 preserveAspectRatio="xMidYMid meet">
<metadata>
Created by potrace 1.11, written by Peter Selinger 2001-2013
</metadata>
<g transform="translate(0.000000,474.000000) scale(0.100000,-0.100000)"
fill="#000000" stroke="none">
<path d="M450 4722 c-44 -7 -46 -13 -54 -207 -17 -374 -24 -2075 -12 -2754 5
-297 -11 -274 195 -275 121 -1 153 2 165 14 9 9 18 45 22 87 3 39 7 495 8
1012 1 757 4 943 14 953 10 10 117 13 510 14 527 1 622 5 659 29 24 16 28 46
25 204 -2 95 -2 95 -184 94 -673 -3 -927 -2 -953 2 -16 3 -39 15 -50 26 -19
19 -20 34 -22 352 -1 182 -5 351 -8 373 -10 74 -15 76 -161 78 -71 1 -140 1
-154 -2z"/>
<path d="M4007 4722 c-57 -7 -58 -16 -60 -414 -2 -259 -6 -369 -14 -384 -7
-12 -27 -24 -45 -28 -18 -4 -272 -6 -564 -6 l-532 0 -24 -29 c-21 -25 -25 -40
-27 -103 -1 -83 11 -144 32 -166 13 -12 95 -15 559 -17 298 -1 554 -5 568 -9
14 -3 30 -13 37 -21 8 -12 11 -276 11 -1011 0 -1092 -3 -1035 59 -1047 15 -3
87 -5 160 -4 106 2 135 5 148 18 15 15 16 159 17 1581 0 1389 -2 1568 -16
1601 -8 20 -21 37 -28 38 -44 4 -258 5 -281 1z"/>
<path d="M2285 4675 c-111 -33 -185 -113 -201 -219 -3 -17 -5 -91 -4 -165 0
-111 3 -138 17 -153 9 -10 22 -18 29 -18 16 0 162 77 377 198 95 55 119 73
127 97 31 95 -42 208 -161 250 -58 21 -135 25 -184 10z"/>
<path d="M2485 4201 c-125 -61 -360 -193 -383 -215 -16 -15 -18 -164 -4 -178
9 -9 96 32 287 135 167 90 235 128 241 138 9 15 9 153 0 167 -4 7 -10 12 -14
12 -4 0 -61 -27 -127 -59z"/>
<path d="M2450 3874 c-80 -41 -196 -105 -257 -140 l-113 -66 0 -59 c0 -69 12
-99 40 -99 22 0 123 51 365 185 22 12 58 32 80 44 64 35 71 49 69 127 -1 38
-2 72 -3 77 -3 18 -46 2 -181 -69z"/>
<path d="M2499 3596 c-165 -83 -395 -212 -404 -226 -3 -4 -5 -38 -6 -75 -1
-46 3 -70 12 -75 17 -11 118 28 253 98 132 69 276 160 277 176 3 49 0 136 -5
145 -10 16 -10 16 -127 -43z"/>
<path d="M2544 3331 c-71 -34 -184 -95 -329 -176 -27 -16 -63 -36 -79 -45 -26
-14 -33 -29 -66 -155 -27 -103 -63 -198 -134 -358 -163 -371 -261 -577 -273
-578 -4 0 -119 -1 -255 -2 -172 -2 -251 -6 -259 -14 -6 -6 -15 -29 -19 -51
-10 -59 -4 -423 8 -453 7 -18 21 -28 42 -33 18 -3 544 -6 1169 -5 853 0 1145
3 1170 12 45 16 50 36 55 212 3 143 -13 298 -33 318 -10 10 -76 13 -437 16
l-51 1 -45 98 c-26 53 -70 151 -98 217 -29 66 -70 156 -92 200 -56 113 -122
270 -141 335 -26 90 -43 219 -40 300 6 143 5 182 -4 191 -5 5 -41 -7 -89 -30z"/>
<path d="M63 1382 c-54 -5 -57 -21 -57 -277 -1 -240 8 -306 42 -320 21 -9
1483 -19 1517 -11 24 6 24 7 10 47 -25 71 -105 180 -205 279 -164 164 -336
257 -510 276 -64 7 -735 12 -797 6z"/>
<path d="M3930 1382 c-55 -5 -55 -17 2 -53 166 -106 310 -259 430 -455 28 -47
55 -87 60 -90 14 -9 71 -14 143 -14 104 0 151 11 157 38 3 14 3 423 -1 520 -1
26 -7 35 -28 43 -26 10 -672 19 -763 11z"/>
<path d="M1333 1342 c-12 -2 -27 -9 -33 -17 -8 -10 9 -28 83 -84 148 -111 233
-214 319 -386 80 -159 162 -402 182 -541 4 -22 9 -51 11 -64 3 -14 8 -47 11
-75 6 -57 9 -75 19 -126 l7 -36 106 -3 c163 -6 2256 -4 2347 1 l80 5 0 65 c0
35 -3 82 -6 104 -4 22 -10 63 -13 92 -33 288 -195 623 -396 821 -79 78 -191
163 -265 200 -91 45 -95 46 -1295 46 -624 1 -1145 0 -1157 -2z m2112 -423
c234 -82 475 -204 475 -240 0 -31 -476 -176 -639 -195 -52 -6 -60 -4 -69 13
-24 44 3 55 283 128 186 48 205 54 205 70 0 22 -45 47 -185 104 -71 29 -149
62 -173 73 -45 21 -67 50 -58 74 8 20 48 13 161 -27z m-672 -79 c5 -4 -1 -16
-12 -27 -20 -19 -59 -32 -289 -103 -106 -32 -118 -44 -71 -67 52 -26 148 -67
254 -109 109 -44 182 -90 174 -110 -7 -19 -631 174 -674 208 -54 42 -26 74 95
108 85 24 75 21 195 49 50 12 131 32 180 45 84 22 128 24 148 6z"/>
<path d="M62 543 c-12 -2 -27 -13 -32 -23 -8 -15 -5 -22 12 -34 20 -14 114
-16 818 -16 834 0 841 0 825 42 -4 9 -20 21 -35 27 -28 9 -1538 14 -1588 4z"/>
<path d="M4550 540 c-33 -8 -40 -46 -9 -55 36 -12 169 -9 181 3 9 9 8 18 0 37
-11 24 -16 25 -79 24 -38 -1 -79 -5 -93 -9z"/>
</g>
</svg>
