<svg width="0" height="0" class="hidden">
  <symbol xmlns="http://www.w3.org/2000/svg" viewBox="0 0 20 20" id="home">
    <title>home</title>
    <path d="M18.672 11H17v6c0 .445-.194 1-1 1h-4v-6H8v6H4c-.806 0-1-.555-1-1v-6H1.328c-.598 0-.47-.324-.06-.748L9.292 2.22c.195-.202.451-.302.708-.312.257.01.513.109.708.312l8.023 8.031c.411.425.539.749-.059.749z"></path>
  </symbol>
  <symbol xmlns="http://www.w3.org/2000/svg" viewBox="0 0 701.86 629.874" id="logo-warner">
    <path d="M292.281 127.28l15.733 20.228-.321 352.545-15.412 18.302S238.34 463.45 217.149 397.95l-26.971 33.714s-72.243-80.912-89.581-210.949l34.677-10.596 24.081 18.302s16.375 80.912 41.419 118.479c0 0-25.044-113.662-21.191-174.346l33.713-1.926 25.044 17.338s-5.779 57.794 21.191 154.118l-1.927-210.949 34.677-3.855m8.588-20.337l-10.715 1.19-34.677 3.853-17.295 1.921.159 17.401.306 33.437-14.384-9.958-5.449-3.772-6.616.378-33.713 1.926-17.045.974-1.082 17.039c-.645 10.16-.541 21.624.091 33.722l-13.517-10.273-7.854-5.968-9.433 2.882-34.677 10.595-15.625 4.774 2.159 16.195c4.132 30.993 11.621 61.857 22.258 91.735a464.867 464.867 0 0 0 31.282 69.299c21.03 37.93 39.97 59.309 40.767 60.2l15.177 16.999 14.236-17.796 6.394-7.992c25.717 53.83 64.961 94.154 66.923 96.15l14.839 15.104 13.639-16.196 15.412-18.302 4.522-5.371.006-7.021.321-352.545.006-6.62-4.064-5.225-15.733-20.228-6.618-8.507zm93.882 17.374s218.655 32.75 114.626 167.603c0 0 117.515 87.654-112.699 225.397l-20.228-18.302V146.471l18.301-22.154m-7.917-20.666l-6.936 8.396-18.301 22.154-4.412 5.341v368.022l6.339 5.735 20.228 18.302 10.576 9.57 12.24-7.324c97.9-58.576 149.019-117.317 151.933-174.59 1.644-32.301-12.558-55.886-23.989-69.445 9.888-15.154 16.52-29.933 19.772-44.092 4.142-18.026 2.976-35.283-3.466-51.293-12.153-30.206-42.2-54.46-89.306-72.09-33.036-12.364-62.664-16.887-63.909-17.073l-10.769-1.613z"></path>
    <path d="M407.723 293.646V162.253l10.332 1.367c.898.119 22.244 3.019 43.146 12.272 38.097 16.867 43.565 40.627 41.445 57.59-2.939 23.515-19.028 41.349-46.526 51.576-19.546 7.27-38.089 8.143-38.869 8.177l-9.528.411zm18.268-109.975v90.249c17.816-2.713 54.692-12.016 58.528-42.702 1.967-15.733-8.367-28.727-30.714-38.621-10.089-4.467-20.443-7.283-27.814-8.926zM409.34 470.037l-.331-132.513 1.826-2.367c7.961-10.318 25.854-17.252 44.526-17.252 17.313 0 31.703 5.854 40.518 16.481 10.772 12.987 10.396 29.731 8.185 41.49-11.841 62.951-80.103 88.773-83.002 89.842l-11.722 4.319zm17.153-126.104l.249 99.94c18.448-9.683 52.885-32.569 60.156-71.225 2.211-11.754.709-20.875-4.463-27.11-5.357-6.46-15.226-10.165-27.073-10.165-12.872 0-23.74 4.13-28.869 8.56zM242.722 564.974a9.955 9.955 0 0 1-5.182-1.454c-54.371-33.022-99.863-75.662-135.212-126.735-47.613-68.792-75.454-151.468-82.748-245.73l-.585-7.562 52.271-19.099-.977-24.432 44.261-20.118V96.177l6.709-2.338c5.422-1.89 133.68-46.427 210.626-59.417 5.442-.922 10.606 2.75 11.525 8.196.919 5.446-2.75 10.605-8.196 11.525-65.477 11.055-172.895 46.835-200.665 56.282v22.297L90.81 152.603l1.023 25.569-51.682 18.884c7.885 87.546 34.319 164.338 78.621 228.347 33.741 48.75 77.193 89.468 129.149 121.023 4.721 2.867 6.223 9.018 3.356 13.738a9.99 9.99 0 0 1-8.555 4.81z"></path>
    <path d="M358.022 607.784c-4.435 0-8.521-2.938-9.715-7.398-1.431-5.341 1.675-10.721 7.07-12.247 7.351-2.08 73.817-21.985 142.893-79.55 41.104-34.254 74.864-75.047 100.346-121.245 30.695-55.651 49.461-119.47 55.823-189.791l-51.68-18.883 1.022-25.568-43.739-19.882v-22.641c-22.855-8.92-103.974-39.512-168.067-50.333-5.445-.919-9.115-6.079-8.195-11.525a9.996 9.996 0 0 1 11.525-8.196C472.5 53.557 569.708 92.85 573.807 94.516l6.235 2.534v23.292l44.261 20.118-.978 24.432 52.272 19.099-.586 7.562c-5.895 76.174-25.705 145.298-58.884 205.451-26.687 48.386-62.032 91.098-105.054 126.95-71.625 59.689-141.264 80.863-150.036 83.368a10.086 10.086 0 0 1-3.015.462z"></path>
  </symbol>
  <symbol xmlns="http://www.w3.org/2000/svg" viewBox="0 0 32 32" id="search">
    <title>search</title>
    <path d="M31.008 27.231l-7.58-6.447c-.784-.705-1.622-1.029-2.299-.998a11.954 11.954 0 0 0 2.87-7.787c0-6.627-5.373-12-12-12s-12 5.373-12 12 5.373 12 12 12c2.972 0 5.691-1.081 7.787-2.87-.031.677.293 1.515.998 2.299l6.447 7.58c1.104 1.226 2.907 1.33 4.007.23s.997-2.903-.23-4.007zM12 20a8 8 0 1 1 0-16 8 8 0 0 1 0 16z"></path>
  </symbol>
   <symbol xmlns="http://www.w3.org/2000/svg" viewBox="0 0 357.9 122.29" id="codepaster-logo">
    <title>codepaster-logo</title>
    <path d="M99.76 95.83a32.15 32.15 0 00-6.26-5.84c-3-2.22-5.5-2.29-9.31-2.28H33.24c-.73 0-2.69.21-1.36 1.33 6.69 4.52 9.15 9.58 11.83 17.15a58.42 58.42 0 012.72 13.08c.1.9.27 1.79.39 2.59 4.47.53 56.53.56 61.54 0-.25-9.71-2.64-18.5-8.6-26.03zm-45 11.5a11 11 0 01-2.89-1.5 1 1 0 010-1.44 3.22 3.22 0 011-.6c2.52-1 8.31-2.15 12.41-3.4 1.26-.4 3.93.44.52 1.78-1.77.69-3.61 1.2-5.43 1.76-1.17.35-1.15.44-2.33.77-.81.3-.39.74 0 1 3.22 1.35 5.3 2.41 8.52 3.77.83.36 3 1.87 1.84 2.24m11.28-1.77c-.57.09-1.48.3-1.86-.17a.64.64 0 01-.19-.45c0-1.08 1.3-1.48 5.91-2.72 1.91-.52 3.82-1.07 5.87-1.65a.45.45 0 00.22-.72c-1.08-1.27-2.55-1.51-3.78-2.1-1.72-.82-3.53-1.47-5.21-2.35-1.45-.77-1.66-2.52.12-2.08a63.85 63.85 0 0113.34 6 2.61 2.61 0 01.88.87.56.56 0 01-.24.78 66.19 66.19 0 01-15.06 4.59zM51.42 42.49c3.84-2.29 11.39-6.86 12.37-6.86.42.12.31 2.1.22 3-.67 6.2 1.16 11.81 3.78 17.32 1.54 3.24 2.91 6.55 4.2 9.89.56 1.48 1.25 2.79 2.07 4.54l11.1.13a.92.92 0 01.88.68c.8 3.1.9 6.92.36 12.26a1.09 1.09 0 01-.62.88c-1.3.58-3 .39-4.45.39h-51.7a8.23 8.23 0 01-1.21-.2 1.14 1.14 0 01-.89-1 72.84 72.84 0 01-.1-11.91 1 1 0 01.82-.94c2.08-.46 4.06-.16 6-.22s4.11 0 6.18 0c.62-1.23 1.18-2.19 1.61-3.21 2.42-5.77 4.91-11.47 7.18-17.3a54 54 0 001.75-6.87 1 1 0 01.45-.58zM10.55.79a30.19 30.19 0 016.93 0 1 1 0 01.86.75 14.37 14.37 0 01.32 2.4v13.9c0 .91.09 1.83.18 2.79a1.4 1.4 0 001.19 1.31c3 .54 5.8.15 8.62.23 3.19.08 6.39 0 9.58 0s7-.46 9.23.09c.93.09.64 4.48.44 6.83a.83.83 0 01-.49.7c-1.38.64-2 .33-4.27.51-5.08.42-10.26 0-15.55.13-2.59.06-4.94-.14-7.49-.1a1.31 1.31 0 00-1.25 1 18.66 18.66 0 00-.15 4.39v43.12c0 1.49-.19 2.62-.27 4.1a1 1 0 01-.78.94 20 20 0 01-7.2-.07 1 1 0 01-.9-.87 19.79 19.79 0 01-.19-2.39c-.45-32.33-.18-72.77.52-79.08a.73.73 0 01.67-.68zm93.64 83.15a27.32 27.32 0 01-7.22 0 .93.93 0 01-.63-.41c-.92-1.53-.54-2.71-.55-4.29V31.57a1.1 1.1 0 00-.92-1.08 17.41 17.41 0 00-2.53-.31H67.99a.92.92 0 01-.84-.51c-1-2.1-.6-4.12-.52-6a1 1 0 01.25-.65c1-1.14 1.89-.85 3-.85H90.5c1.44 0 2.93.28 4.44-.4a.91.91 0 00.51-.65c.69-3.22.14-6.58.29-9.9.13-3.07-.15-6.16.17-9.41a1.06 1.06 0 01.87-1 31 31 0 017-.11 1 1 0 01.87.69 7.93 7.93 0 01.41 2c.07 3.36 0 6.71 0 10.07v69.43a1 1 0 01-.87 1.05zm12.02 24.28h-4.32c-.57 0-1.84 0-2.25.6 0 1.3 1 1.12 1.2 1.12 83.17.08 163.7.14 246.55.18.17-.68.34-1.33.52-1.94z"></path>
    <path d="M.55 101.16a52.71 52.71 0 01-.11-13.69.76.76 0 01.74-.67c2.23 0 4.23-.08 6.24-.08h11a18.23 18.23 0 0111.08 3.8 28.12 28.12 0 018.55 10.11c.2.38.63 1.34.33 1.6a2.34 2.34 0 01-1.5.23s-29.37 0-35.14-.28a1.25 1.25 0 01-1.19-1.02zm113.88-13.53a.66.66 0 00-.52-.61 9 9 0 00-1.68-.27H96.48c-.49 0-3.35 0-1.9.76a34.81 34.81 0 0112.34 14.26.86.86 0 00.63.47 13.47 13.47 0 006.46-.17.81.81 0 00.56-.77c-.02-4.48.14-8.88-.14-13.67zM63.76 8.85a1 1 0 01-.4.55c-.81.54-1.81 1.17-2.76 1.73-2.89 1.69-5.8 3.35-8.5 4.9a.85.85 0 01-.82 0c-.9-.44-.79-1.19-.8-1.85 0-2.07-.11-4.16 0-6.22a6.68 6.68 0 017.07-6.29 7 7 0 015 2.41 4.93 4.93 0 011.21 4.77zM40.97 109.7c-.39.52-2 .5-3.09.5H3.41a14.49 14.49 0 01-2.37-.2.9.9 0 01-.51-.66c0-.25.17-.69.37-.75a5.46 5.46 0 011.83-.36h35.9c1.02.11 2.34.24 2.34 1.47zm22.82-96.76v4a.57.57 0 01-.27.49c-4 2.35-7.9 4.71-12.34 7a.33.33 0 01-.48-.29v-4a.56.56 0 01.26-.47 113.42 113.42 0 0112.39-7 .32.32 0 01.44.27zm0 15.84c0 1.48.06 2.33.07 3.27a.9.9 0 01-.37.72c-4.75 3.34-9 5.68-12.06 6.68a.58.58 0 01-.75-.55v-2.94a.8.8 0 01.37-.67 134.76 134.76 0 0112.14-6.87.41.41 0 01.6.36zm.07-7.7v3.37a.89.89 0 01-.44.76c-2 1.21-4.07 2.45-6.14 3.6a36.48 36.48 0 01-5.66 3 .76.76 0 01-1-.51 3.89 3.89 0 01-.17-.76v-2.27a.88.88 0 01.39-.71c3.79-2.39 7.69-4.6 12.18-7a.55.55 0 01.84.52zm293.69 80.26c-11.58.94-11.58.95-17.31-10.52-.78-1.54-1.34-4.29-1.8-4.86a12.13 12.13 0 00-6.37.53v14.81h-10.79V57.19c7.81 0 15.37-.16 22.92.13 1.43.05 3.1 1.61 4.13 2.9 2.25 2.83 4.89 5.68 6 9 .9 2.7.26 6.22-.61 9.1-.63 2-2.79 3.62-4.77 6zm-25.26-22.72c4.55-1.49 8.38-2.13 11.41-4.06 1.08-.69 1.12-5.05.05-6.71-2.75-4.22-7.27-2.22-11.46-2.21zM213.39.87c6.06 0 11.91-.57 17.62.12 11.84 1.44 18.29 11 17.5 24.89-.64 11.39-8.62 19.4-19.83 19.75-5 .16-10 0-15.29 0zm11.16 8.94c0 9.33-1.11 17.8 0 27.3 8.27.26 11.63-2.84 12.7-10.25a26.43 26.43 0 00-.39-8.5c-1.2-7.37-4.51-9.57-12.31-8.55zm-56.18 13.31c0-16.07 9.46-25.1 23.71-22.62 4.39.76 7.62 3 8.8 7.61.27 1.09.69 2.66 1.5 3 6.9 3.11 5.37 9.28 5.23 14.66-.38 15-12.35 23.92-26 19.61-8.56-2.66-13.27-10.59-13.24-22.26zm28.78.27c-.86-3.54-1.07-7.39-2.76-10.42a9.14 9.14 0 00-6.68-3.94c-2.08-.05-5.2 2-6.14 4a22.7 22.7 0 000 20.18 8.68 8.68 0 006.54 4.1c2.23 0 5.25-2.15 6.47-4.22 1.57-2.72 1.73-6.27 2.57-9.7zm9.89 63.83h9c.77 4.83 3.69 7.22 8.32 6.57 1.84-.26 4.77-1.81 4.91-3 .19-1.74-1.31-4.25-2.85-5.46-1.87-1.47-4.65-1.72-6.82-2.9-3.46-1.88-7.19-3.61-10-6.26-4.25-4-3.95-10.65-.08-14.91 6.13-6.76 21.8-7.06 27.77-.2 1.91 2.21 2.53 4.48 3.32 7.74a14 14 0 01-7.13.84 9.9 9.9 0 01-5.2-3c-1-1.11-4.68-1.6-7.13-1.51-1.17 0-3 1.93-3.21 3.2s1.08 3.28 2.26 3.89c3.37 1.75 7 2.89 10.56 4.39 7.13 3 10.68 7.47 9.77 13.89a14.72 14.72 0 01-4.68 8.71c-6.5 5.24-20.18 4.24-26-1.72-2.34-2.4-2.45-4-4.29-7.54q-.1-.48-.15-.84a1.65 1.65 0 011.63-1.89zm-46.81 14.45c5.43-14.78 10.46-29 16.08-43 .57-1.41 4.73-1.82 7.23-1.86 1.51 0 3.93 1.24 4.43 2.52 5.32 13.76 10.34 27.64 15.75 42.31-3.58 0-6.69.34-9.67-.16a5 5 0 01-3.23-3.35c-.71-4.26-3.2-5.78-5.34-5.82a39.72 39.72 0 00-6.83.27 11 11 0 00-2.64.27c-.77.33-1.82 2.12-2.14 3.55-1 4.66-3.37 5.89-7.63 5.29a48.91 48.91 0 00-6.01-.02zm26.17-17.22c-.9-5.21-2.76-8.86-4.51-14.46-1.69 5.63-3 9.91-4.34 14.46zm94.94-57.83h-16.18V37.1h19.48v8.26h-30.09a.54.54 0 01-.54-.53l.67-20.89-.74-20.41c0-2.22.26-2.46.56-2.46h30.17v8.25h-19.66v8.94h16.33zm35.26 38.7h-19.52v9.1h16.37v8.07c-5.31 0-10.36-1.2-16.4 0V93.3h18.35a1.35 1.35 0 011.35 1.35v6.73h-30.73V59.1a2 2 0 012-2h28.58zm-187.91-7.99c7.83 0 15.49-.71 23 .19 7.82.94 12.13 7.06 12 14.73-.09 7.13-4.29 12.18-12 13.67-3.84.73-7.85.61-12.28.92v14.58h-10.72zm10.91 20.61c4.7-.29 9.65 1.69 12.13-3.22.9-1.78.48-5.17-.7-6.87-2.87-4.12-7.33-2.26-11.43-2.14zm14.32-47.34h10.41c-.17 7.53-4.13 12.91-11.32 14.74-8 2-14.25 1.56-19-5.3-5.33-7.73-8.77-15.37-6.41-25 2.22-9 8.32-14.5 17.5-15 8.94-.53 16.12 3.76 18.63 11.23a45.86 45.86 0 011.09 5h-10.35c-.93-1.92-1.47-4.15-2.84-5.6-3.66-3.88-10.88-2.33-12.08 2.93-1.12 4.93-1.07 10.21-1 15.33.09 4.14 1.36 8 6.56 8.53 5 .48 8.03-1.61 8.81-6.86zm103.11 70.84v-36c-4-.75-8.6 0-13 0v-8.5h37.19v8.3h-13.1c-.7 11.45 0 23.65 0 36.18z"></path>
  </symbol>
   <symbol version="1.2" baseProfile="tiny" xmlns="http://www.w3.org/2000/svg" viewBox="0 0 2350 2314.8" id="github-logo">
    <path d="M1175 0C525.8 0 0 525.8 0 1175c0 552.2 378.9 1010.5 890.1 1139.7-5.9-14.7-8.8-35.3-8.8-55.8v-199.8H734.4c-79.3 0-152.8-35.2-185.1-99.9-38.2-70.5-44.1-179.2-141-246.8-29.4-23.5-5.9-47 26.4-44.1 61.7 17.6 111.6 58.8 158.6 120.4 47 61.7 67.6 76.4 155.7 76.4 41.1 0 105.7-2.9 164.5-11.8 32.3-82.3 88.1-155.7 155.7-190.9-393.6-47-581.6-240.9-581.6-505.3 0-114.6 49.9-223.3 132.2-317.3-26.4-91.1-61.7-279.1 11.8-352.5 176.3 0 282 114.6 308.4 143.9 88.1-29.4 185.1-47 284.9-47 102.8 0 196.8 17.6 284.9 47 26.4-29.4 132.2-143.9 308.4-143.9 70.5 70.5 38.2 261.4 8.8 352.5 82.3 91.1 129.3 202.7 129.3 317.3 0 264.4-185.1 458.3-575.7 499.4 108.7 55.8 185.1 214.4 185.1 331.9V2256c0 8.8-2.9 17.6-2.9 26.4C2021 2123.8 2350 1689.1 2350 1175 2350 525.8 1824.2 0 1175 0z"></path>
  </symbol>
  <symbol xmlns="http://www.w3.org/2000/svg" viewBox="0 0 354 323" id="lemoncode-logo">
    <path d="M99.42 12.09v5.36h-5.51c-3.15 0-4.74 4.49-4.74 13.5v18.41c0 6.51-.98 11.5-2.91 15.07-1.92 3.53-3.7 5.85-5.38 6.91v.26c1.78 1.35 3.58 3.76 5.48 7.23 1.86 3.44 2.81 8.43 2.81 14.89v18.25c0 8.89 1.59 13.33 4.74 13.33h5.51v5.35h-7.16c-5.97 0-8.97-5.35-8.97-16.06V96.12c0-14.63-2.81-21.98-8.47-21.98v-5.35c5.66 0 8.47-7.27 8.47-21.81V28.34c0-10.83 3.49-16.25 10.44-16.25h5.69zm156.69-.77v5.36h5.51c3.15 0 4.74 4.48 4.74 13.5v18.4c0 6.52.98 11.51 2.91 15.08 1.92 3.53 3.7 5.85 5.38 6.91v.26c-1.78 1.35-3.58 3.76-5.48 7.23-1.86 3.44-2.81 8.43-2.81 14.89v18.25c0 8.89-1.59 13.33-4.74 13.33h-5.51v5.34h7.16c5.97 0 8.97-5.34 8.97-16.05V95.35c0-14.63 2.81-21.98 8.47-21.98v-5.35c-5.66 0-8.47-7.27-8.47-21.81V27.57c0-10.84-3.49-16.25-10.44-16.25h-5.69z" fill="#eee"></path>
    <path d="M10.45 164.31H0v70.38h44.34v-10.61H10.45zm60.77 39.79h32.64v-10.22H71.22v-19.7h33.36v-10.55H60.72v71.06h43.96v-10.61H71.22zm62.76-19.39l19.15 26.93h5.98l18.86-26.93v48.82h10.3V164.1h-8.24l-23.86 33.78-24.15-33.78h-8.49v69.43h10.45zm72.81 14.59c0 10.26 4.22 19.49 10.71 26.24 6.56 6.88 15.74 11.05 25.73 11.05 10.14 0 19.31-4.17 26-11.05 6.48-6.75 10.7-15.98 10.7-26.24 0-10.26-4.22-19.49-10.7-26.25-6.69-6.78-15.86-11.02-26-11.02-9.99 0-19.17 4.24-25.73 11.02-6.49 6.76-10.71 15.99-10.71 26.25zm62.64 0c0 7.46-2.98 13.99-7.61 18.76-4.84 4.87-11.53 7.9-18.59 7.9-7.04 0-13.56-3.03-18.25-7.9a26.69 26.69 0 01-7.69-18.76c0-7.36 2.99-14 7.69-18.76 4.69-4.89 11.21-7.91 18.25-7.91 7.06 0 13.75 3.02 18.59 7.91 4.63 4.76 7.61 11.3 7.61 18.76zm41.54 34.33v-48.36l34.79 48.36H354v-69.32h-10.29v48.85l-35.11-48.85-8.03-.1v69.42z" fill-rule="evenodd" clip-rule="evenodd" fill="#D9D900"></path>
    <path d="M22.99 285.66c0 10.12 4.12 19.3 10.3 25.98 6.28 6.67 15.13 10.84 24.91 10.84 16.78 0 29.96-11.26 34.08-27.84H82.09c-3.71 11.05-12.98 17.42-23.89 17.42-6.9 0-13.18-3.03-17.71-7.83-4.52-4.8-7.41-11.26-7.41-18.57 0-7.51 2.89-13.97 7.41-18.77 4.53-4.8 10.81-7.83 17.71-7.83 10.61 0 19.46 5.53 23.27 16.49h10.29c-4.12-16.49-17.09-26.89-33.56-26.89-9.78 0-18.63 4.25-24.91 10.82-6.18 6.68-10.3 15.86-10.3 26.18zm89.61.05c0 10.26 4.22 19.49 10.71 26.24 6.56 6.88 15.73 11.05 25.73 11.05 10.14 0 19.31-4.17 26-11.05 6.48-6.75 10.7-15.98 10.7-26.24 0-10.26-4.22-19.49-10.7-26.25-6.69-6.78-15.86-11.01-26-11.01-10 0-19.17 4.23-25.73 11.01-6.49 6.76-10.71 15.99-10.71 26.25zm62.64 0c0 7.46-2.98 13.99-7.61 18.76-4.84 4.88-11.53 7.9-18.59 7.9-7.04 0-13.56-3.02-18.25-7.9-4.7-4.77-7.69-11.4-7.69-18.76s2.99-13.99 7.69-18.76c4.69-4.89 11.21-7.91 18.25-7.91 7.06 0 13.75 3.02 18.59 7.91 4.63 4.77 7.61 11.3 7.61 18.76zm33.1-35.67v71.72h25.22c23.24 0 35.08-17.74 35.08-35.59s-11.84-36.13-35.08-36.13h-25.22zm10.4 61.42v-50.87h14.82c16.34 0 24.78 12.93 24.78 25.58 0 12.64-8.44 25.29-24.78 25.29h-14.82zm81.52-20.95h32.64v-10.22h-32.64v-19.7h33.36v-10.55h-43.86v71.06h43.96v-10.61h-33.46z" fill-rule="evenodd" clip-rule="evenodd" fill="#eee"></path>
    <path fill-rule="evenodd" clip-rule="evenodd" fill="#D9D900" d="M202.21 78.18c-5.66-1.54-11.83-2.57-17.5-4.11-.51.51-.51-.52-.51 1.03 0 1.02 16.98 22.11 25.73 32.4.52 1.03 2.06 1.54 3.09 1.54 4.12 0 15.96-15.94 15.96-19.03 0-7.71-11.33-7.71-14.41-8.74-4.12-1.03-8.75-2.06-12.36-3.09zm30.37-7.2c0-5.66-2.06-16.46-8.23-20.06l-39.12 19.55 39.63 7.71c6.18-1.03 7.72-2.06 7.72-7.2zm-21.1-44.75c-2.06-1.54-4.63-3.6-5.66-3.6-1.55 0-3.09 2.06-3.61 3.09-5.66 12.86-19.56 38.06-19.56 39.09 0 1.54 5.15-1.03 10.81-4.12 9.27-5.14 19.56-9.77 28.31-14.91.52-.52.52-1.03.52-2.57 0-5.15-4.12-10.81-10.81-16.98zm-31.39 51.18h-1.54V98.5c0 1.03.51 15.43 2.06 22.63.51 1.54 5.66 3.6 7.72 3.6 4.11 0 16.47-4.63 16.47-11.31 0-1.55-1.03-4.63-2.58-6.18-7.2-9.77-12.86-21.09-22.13-29.83zm-4.9 42.43l-.51-42.17c-1.55.51-2.06.51-2.58 1.03-7.2 9.25-14.92 18.51-22.64 27.77-1.55 2.06-4.12 5.66-4.12 6.69 0 7.71 20.59 12.86 24.19 12.86 3.09 0 5.66-2.57 5.66-6.18zm-6.43-46.95c-2.06 0-5.15-.51-6.69-.51l-22.65 2.06h-8.24c-3.6 0-6.69 1.02-6.69 6.17 0 2.57 5.15 25.72 14.93 25.72 1.03 0 1.54 0 2.06-.52 7.2-8.23 13.9-16.97 21.1-24.17 2.06-2.58 6.69-6.18 6.69-7.72 0-1.03 0-.51-.51-1.03zm.4-2.56c.52.04.99.04 1.46-.13-.31.08-.67.13-1.09.13h-.37zm-30-30.86c-1.54-1.03-3.6-1.03-5.14-1.03-5.67 6.17-8.75 16.98-8.75 24.18 0 7.2 7.72 6.68 13.38 6.68 1.54 0 9.26-.51 13.38-1.02h18.53v-1.55c-10.29-8.74-21.1-18.51-31.4-27.26zm34.23 23.2c-3.09-14.92-2.57-28.29-9.26-42.7-3.09 0-6.7 0-8.75 1.55-2.06 1.03-14.93 7.71-14.93 12.34 0 1.54 23.68 23.15 32.43 30.35 1.02-1.03.51-1.54.51-1.54zm21.87-44.41c-6.17-1.54-17.49-2.06-18.52-2.06-1.55 0-3.09 0-3.61.52-1.54.51-2.06 2.05-2.06 3.08l7.21 42.18c4.12-3.09 7.21-12.34 10.29-18 .52-1.55 9.78-17.49 9.78-21.61 0-1.54 0-1.54-.51-2.05-.52-1.03-1.55-2.06-2.58-2.06zM177.77 0c-39.8 0-72.06 32.24-72.06 72.01s32.26 72.01 72.06 72.01c39.79 0 72.05-32.24 72.05-72.01S217.56 0 177.77 0zm64.36 88.38c-1.06 3.46-2.33 6.89-3.7 10.25-1.25 3.1-2.76 6.05-4.98 8.58-2.18 2.48-4.83 4.47-7.37 6.56-2.69 2.22-4.08 5.64-6.5 8.15-2.3 2.38-5.71 3.61-8.53 5.35-2.73 1.68-5.19 3.92-8.22 4.95-6.26 2.1-12.83 4.31-19.31 5.49-6.66 1.21-14.53-.63-21.2-1.38-6.53-.73-12.7-3.37-18.35-6.81-6.64-4.03-13.42-8.72-18.06-15.06-4.29-5.87-7.17-12.73-9.95-19.34-1.35-3.23-2.14-6.62-2.59-10.09-.48-3.72-1.9-6.44-2.5-10.13-1.76-10.91.99-20.39 5.39-30.62 1.33-3.1 2.63-6.24 4.29-9.18 1.63-2.9 3.67-5.49 6.19-7.65 2.53-2.15 5.34-3.93 7.87-6.07 2.57-2.16 4.67-4.8 7.22-6.97 2.5-2.14 5.39-3.45 8.55-4.32 3.32-.9 6.74-1.39 10.04-2.42 3.41-1.08 6.71-2.5 10.2-3.35 7.14-1.77 14.54-.63 21.54 1.22 7.01 1.86 14.01 4.12 20.23 7.91 3.13 1.9 6.06 4.08 8.97 6.28 14.19 10.76 19.39 29.61 22.02 46.54 1.16 7.47.98 14.86-1.25 22.11z"></path>
  </symbol>
</svg>